<svg id="Layer_1" xmlns="http://www.w3.org/2000/svg" viewBox="0 0 250 37.9"><style>.st0{fill:#fff}</style><path id="XMLID_1340_" class="st0" d="M249.4 0c-4.8 0-8.7 3.9-8.7 8.7v.4c-1.2-.4-2.4-.6-3.7-.6-4.9 0-9 3.1-10.5 7.4-1.5-1.4-3.6-2.2-5.8-2.2-2.2 0-4.2.8-5.7 2.2-1.5-2.4-4.2-4.1-7.3-4.1-3.2 0-6 1.7-7.5 4.3-2-2.2-4.9-3.6-8.2-3.6-1.7 0-3.3.4-4.7 1-.8-3.7-4.1-6.5-8.1-6.5-4.4 0-8.1 3.5-8.2 7.9h-.3c-1.5 0-3 .4-4.2 1.1-.6-2.7-3-4.8-6-4.8-1.8 0-3.5.8-4.6 2.1 0-.3.1-.6.1-.9 0-3.4-2.7-6.1-6.1-6.1-2.5 0-4.7 1.5-5.6 3.7-1.4-.9-3-1.4-4.7-1.4-1.8 0-3.5.6-4.9 1.5-1.3-2.3-3.4-4.1-5.9-5-1.1-.4-2.3-.6-3.6-.6h-.2c-1.2 0-2.4.2-3.6.6v.1c-2.5.9-4.6 2.7-5.9 5-1.4-1-3.1-1.5-4.9-1.5-1.7 0-3.4.5-4.7 1.4-.9-2.2-3.1-3.7-5.6-3.7-3.4 0-6.1 2.7-6.1 6.1 0 .3 0 .6.1.9-1.1-1.3-2.8-2.1-4.6-2.1-2.9 0-5.4 2.1-6 4.8-1.3-.7-2.7-1.1-4.2-1.1h-.3c-.3-4.5-3.9-8-8.4-8-3.9 0-7.2 2.8-8.1 6.5-1.4-.7-3-1-4.7-1-3.2 0-6.1 1.4-8.2 3.6-1.5-2.6-4.3-4.3-7.5-4.3-3.1 0-5.8 1.6-7.3 4.1-1.5-1.4-3.5-2.2-5.7-2.2s-4.2.8-5.8 2.2C22 11.6 17.8 8.5 13 8.5c-1.3 0-2.5.2-3.7.6v-.4C9.4 3.9 5.5 0 .7 0H.1v37.9H250V0h-.6z"/></svg>