<svg id="Layer_1" xmlns="http://www.w3.org/2000/svg" viewBox="0 0 266.2 51.1"><style>.st0{fill:#fa8eaf}</style><path id="XMLID_1341_" class="st0" d="M265.6 4.8c-4.4 0-8.3 2.4-10.3 6-1.5-1-3.3-1.6-5.2-1.6-1.8 0-3.6.5-5 1.5-1-2.3-3.3-3.9-6-3.9-3.6 0-6.5 2.9-6.5 6.5 0 .3 0 .6.1.9-1.2-1.4-2.9-2.2-4.9-2.2-3.1 0-5.7 2.2-6.3 5.1-1.3-.7-2.9-1.2-4.5-1.2h-.3c-.2-4.7-4-8.4-8.7-8.4-4.2 0-7.7 2.9-8.5 6.9-1.5-.7-3.2-1.1-5-1.1-3.4 0-6.5 1.5-8.7 3.8-1.6-2.7-4.6-4.5-7.9-4.5-3.3 0-6.2 1.7-7.8 4.3-1.6-1.4-3.8-2.3-6.1-2.3-2.4 0-4.5.9-6.1 2.3-1.6-4.6-6-7.9-11.2-7.9-1.4 0-2.7.2-3.9.7v-.4c0-5.1-4.1-9.2-9.2-9.2h-1c-5.1 0-9.2 4.1-9.2 9.2v.4c-1.2-.4-2.6-.7-3.9-.7-5.2 0-9.5 3.3-11.2 7.9-1.6-1.5-3.8-2.3-6.1-2.3s-4.5.9-6.1 2.3c-1.6-2.6-4.5-4.3-7.8-4.3-3.4 0-6.3 1.8-7.9 4.5-2.2-2.3-5.2-3.8-8.7-3.8-1.8 0-3.4.4-5 1.1-.9-3.9-4.4-6.9-8.5-6.9-4.7 0-8.6 3.7-8.7 8.4h-.3c-1.6 0-3.2.4-4.5 1.2-.6-2.9-3.2-5.1-6.3-5.1-2 0-3.7.9-4.9 2.2 0-.3.1-.6.1-.9 0-3.6-2.9-6.5-6.5-6.5-2.7 0-5 1.6-6 3.9-1.4-.9-3.2-1.5-5-1.5-1.9 0-3.7.6-5.2 1.6-2-3.6-5.9-6-10.3-6H0V51h266.2V4.9c-.2-.1-.4-.1-.6-.1z"/></svg>