<svg id="Layer_1" xmlns="http://www.w3.org/2000/svg" viewBox="0 0 259 26.3"><style>.st0{fill:#fff}</style><g id="XMLID_1350_"><path id="XMLID_1458_" class="st0" d="M0 7.8l.3-1.5c.9-3.1 3-5 6-5.7C11-.6 15.6 0 19.9 2.5c.1.1.2.1.4.2-1.1 1.9-2.1 3.7-3.2 5.6-1.1-.5-2.2-.9-3.2-1.3-1.6-.7-3.2-.9-4.9-.8-.9 0-1.6.5-1.7 1.1-.2.7.1 1.3.8 1.5 1 .3 2.1.6 3.1.9 1.9.6 3.8 1 5.6 1.7 2.2.9 3.7 2.4 4.1 4.8.9 5.7-2.2 8.8-6.9 9.7-4.8.8-9.5.3-13.9-2-.1 0-.1 0-.2-.1v-.7c1-1.7 2-3.4 3-5.2.4.2.7.3 1.1.5 2.5 1.3 5.1 1.9 7.8 1.7.4 0 .8-.1 1.2-.3.5-.2.8-.7.8-1.3 0-.6-.3-.9-.8-1.1-1-.4-2-.7-3-1-2-.4-4-.8-5.9-1.7-2.1-1-3.6-2.6-3.9-5C.1 9.4.1 9 0 8.6v-.8z"/><path id="XMLID_1456_" class="st0" d="M74.1.7v24.7h-7V14.1c-.2.3-.3.4-.4.6-1.3 2.1-2.5 4.2-3.8 6.3-.7 1.2-1.8 1.2-2.5 0-1.3-2.1-2.5-4.1-3.8-6.2-.1-.2-.2-.4-.5-.7v11.4h-7V.8h5.8c.7 0 1.2.2 1.5.9 1.6 2.7 3.2 5.3 4.8 8 .1.2.2.3.4.6.1-.2.3-.4.4-.6 1.7-2.7 3.3-5.5 5-8.2.2-.3.6-.6.9-.6 2-.2 4.1-.2 6.2-.2z"/><path id="XMLID_1453_" class="st0" d="M91.4 18.1v7.4h-7.1V.7h11.2c3.1 0 5.7 1.1 7.7 3.5 3.4 4.1 2.3 9.7-2.3 12.5-1.6 1-3.4 1.5-5.3 1.5-1.3-.1-2.7-.1-4.2-.1zm.1-6.6h4c1.2 0 2.2-.9 2.3-2 .1-1.2-.7-2.5-1.9-2.6-1.5-.1-2.9 0-4.4 0v4.6z"/><path id="XMLID_1452_" class="st0" d="M164 25.4V1.3l.6-.6h18.7v6.5h-12.4v3.1H182v6.6h-11.2v8.6c-2.2-.1-4.5-.1-6.8-.1z"/><path id="XMLID_1451_" class="st0" d="M214.9.7h8c1.2 2.5 2.4 5.1 3.7 7.7 1.2-2.6 2.4-5.2 3.6-7.7h8c-.1.2-.2.5-.3.7l-7.5 15c-.2.4-.3.8-.3 1.2v7.8h-7.2c0-1.6-.1-3.2 0-4.8.2-2.5-.4-4.8-1.6-7-2.2-4-4.1-8.1-6.1-12.2-.1-.2-.2-.4-.3-.7z"/><path id="XMLID_1450_" class="st0" d="M122.6 19.2h12.8v6.3h-19.7V.8h6.9v18.4z"/><path id="XMLID_1449_" class="st0" d="M199.6 19.2h12.8v6.3h-19.8V.8h6.9c.1 6.1.1 12.2.1 18.4z"/><path id="XMLID_1448_" class="st0" d="M145.4.7h7.2v24.7h-7.2V.7z"/><path id="XMLID_1447_" class="st0" d="M30.8.7H38v24.7h-7.2V.7z"/><path id="XMLID_1446_" class="st0" d="M253.4 8.8h-2V1.3h2c.6 1 1.2 1.9 1.8 3l1.8-3h2v7.5h-2V5.3h-.1c-.5.9-1.1 1.7-1.7 2.7-.6-1-1.1-1.8-1.8-2.8v3.6z"/><path id="XMLID_1445_" class="st0" d="M246.6 8.8V3.2h-2.2V1.3h6.4v1.8h-2.1v5.7h-2.1z"/></g></svg>