<svg id="Layer_1" xmlns="http://www.w3.org/2000/svg" viewBox="0 0 250 59.6"><style>.st0{fill-rule:evenodd;clip-rule:evenodd}.st0,.st1{fill:#fff}</style><g id="XMLID_1339_"><path id="XMLID_1342_" class="st0" d="M123.4 16.9c1.4 1 18.8 5.6 23.2 6.6.4.2 1.4.3 1.8.5l2.1 1.2c-20.6 6.1-9.3 5.7-33.5-7.8-3.7-2.1-6.3-3.8-10.7-.3l9.2 17.9c-4.1.9-7.6-.2-12.3 1.4.2 0 .4 0 .5.2l3.3 1.6c1.6.3 2.8.7 4.2 1 4.9 1.6 1.2 3.1 7.6 3.5 6.9.3 13.6.2 20.8.2 15.9.2 26.9-3.1 41.9-5.6 2.1 3.5 2.3 4.2 6.2 4 2.8-.2 5.6-.9 7.2-2.1l-1.4-5.1c0-.2-.2-.3-.2-.5 4.2-.3.5-.7 3.5 2.4 1.8 1.7 1.9 1.6 4.6 1.4 12.3-.9 7.7-4.4 6-8.7 12-5.1 32.6-10.1 40-17.4 9.5-9.6-10.2-10.3-13.7-11-8.1-1.6-17.6 2.1-23.8 4.2-8.1 2.8-36.1 14.1-40.9 15.2-5.8 1-26.9-2.8-34.5-4.2-3.3-.5-8.6-1.2-11.1 1.4z"/><path id="XMLID_1345_" class="st1" d="M112.8 42.9L0 59.6l111-18.4z"/><path id="XMLID_1346_" class="st1" d="M103.8 39.9l-89.3 13 87.1-14.6z"/></g></svg>