<svg id="Layer_1" xmlns="http://www.w3.org/2000/svg" viewBox="0 0 44.7 45.2"><style>.st0{opacity:.7}.st1{fill:#fff}</style><g id="XMLID_18_" class="st0"><path id="XMLID_30_" class="st1" d="M30.2 27.6c-.4 0-.8-.1-1.1-.4l-7-7-7 7c-.6.6-1.5.6-2.1 0s-.6-1.5 0-2.1l9.1-9.1 9.1 9.1c.6.6.6 1.5 0 2.1-.2.3-.6.4-1 .4z"/><path id="XMLID_31_" class="st1" d="M22.2 42.7c-11.3 0-20.6-9.2-20.6-20.6S10.8 1.5 22.2 1.5s20.6 9.2 20.6 20.6-9.3 20.6-20.6 20.6zm0-38.2c-9.7 0-17.6 7.9-17.6 17.6s7.9 17.6 17.6 17.6 17.6-7.9 17.6-17.6-8-17.6-17.6-17.6z"/></g></svg>